<?xml version="1.0" encoding="UTF-8"?>
<svg id="Layer_1" data-name="Layer 1" xmlns="http://www.w3.org/2000/svg" viewBox="0 0 55.98 55.98">
  <defs>
    <style>
      .cls-1 {
        fill: #ff5cef;
        stroke-width: 0px;
      }
    </style>
  </defs>
  <circle class="cls-1" cx="29.98" cy="22.99" r="2"/>
  <path class="cls-1" d="m53.98,36.99c-.76,0-1.41.43-1.75,1.05-.08-.02-.16-.05-.25-.05h-2.46l-1.7-2.55c-.19-.28-.5-.45-.83-.45h-2v-6h5c.09,0,.17-.03.25-.05.34.62.99,1.05,1.75,1.05,1.1,0,2-.9,2-2s-.9-2-2-2c-.76,0-1.41.43-1.75,1.05-.08-.02-.16-.05-.25-.05h-5v-6h2c.33,0,.65-.17.83-.45l1.7-2.55h2.46c.09,0,.17-.03.25-.05.34.62.99,1.05,1.75,1.05,1.1,0,2-.9,2-2s-.9-2-2-2c-.76,0-1.41.43-1.75,1.05-.08-.02-.16-.05-.25-.05h-3c-.33,0-.65.17-.83.45l-1.7,2.55h-1.46v-7c0-.55-.45-1-1-1h-7v-1.46l2.55-1.7c.28-.19.45-.5.45-.83v-3c0-.09-.03-.17-.05-.25.62-.34,1.05-.99,1.05-1.75,0-1.1-.9-2-2-2s-2,.9-2,2c0,.76.43,1.41,1.05,1.75-.02.08-.05.16-.05.25v2.46l-2.55,1.7c-.28.19-.45.5-.45.83v2h-6v-5c0-.09-.03-.17-.05-.25.62-.34,1.05-.99,1.05-1.75,0-1.1-.9-2-2-2s-2,.9-2,2c0,.76.43,1.41,1.05,1.75-.02.08-.05.16-.05.25v5h-6v-2c0-.33-.17-.65-.45-.83l-2.55-1.7v-2.46c0-.09-.03-.17-.05-.25.62-.34,1.05-.99,1.05-1.75,0-1.1-.9-2-2-2s-2,.9-2,2c0,.76.43,1.41,1.05,1.75-.02.08-.05.16-.05.25v3c0,.33.17.65.45.83l2.55,1.7v1.46h-7c-.55,0-1,.45-1,1v7h-1.46l-1.7-2.55c-.19-.28-.5-.45-.83-.45h-3c-.09,0-.17.03-.25.05-.34-.62-.99-1.05-1.75-1.05-1.1,0-2,.9-2,2s.9,2,2,2c.76,0,1.41-.43,1.75-1.05.08.02.16.05.25.05h2.46l1.7,2.55c.19.28.5.45.83.45h2v6h-5c-.09,0-.17.03-.25.05-.34-.62-.99-1.05-1.75-1.05-1.1,0-2,.9-2,2s.9,2,2,2c.76,0,1.41-.43,1.75-1.05.08.02.16.05.25.05h5v6h-2c-.33,0-.65.17-.83.45l-1.7,2.55h-2.46c-.09,0-.17.03-.25.05-.34-.62-.99-1.05-1.75-1.05-1.1,0-2,.9-2,2s.9,2,2,2c.76,0,1.41-.43,1.75-1.05.08.02.16.05.25.05h3c.33,0,.65-.17.83-.45l1.7-2.55h1.46v7c0,.55.45,1,1,1h7v1.46l-2.55,1.7c-.28.19-.45.5-.45.83v3c0,.09.03.17.05.25-.62.34-1.05.99-1.05,1.75,0,1.1.9,2,2,2s2-.9,2-2c0-.76-.43-1.41-1.05-1.75.02-.08.05-.16.05-.25v-2.46l2.55-1.7c.28-.19.45-.5.45-.83v-2h6v5c0,.09.03.17.05.25-.62.34-1.05.99-1.05,1.75,0,1.1.9,2,2,2s2-.9,2-2c0-.76-.43-1.41-1.05-1.75.02-.08.05-.16.05-.25v-5h6v2c0,.33.17.65.45.83l2.55,1.7v2.46c0,.09.03.17.05.25-.62.34-1.05.99-1.05,1.75,0,1.1.9,2,2,2s2-.9,2-2c0-.76-.43-1.41-1.05-1.75.02-.08.05-.16.05-.25v-3c0-.33-.17-.65-.45-.83l-2.55-1.7v-1.46h7c.55,0,1-.45,1-1v-7h1.46l1.7,2.55c.19.28.5.45.83.45h3c.09,0,.17-.03.25-.05.34.62.99,1.05,1.75,1.05,1.1,0,2-.9,2-2s-.9-2-2-2Zm-13,4h-.57l-3.21-5-3.21-5-2.53,3.94,3.89,6.06h-2.38l-4.49-7-4.49-7-4.49,7-4.49,7h-.03V14.99h26v26Z"/>
</svg>